<?xml version="1.0" encoding="UTF-8"?> <svg xmlns="http://www.w3.org/2000/svg" width="97" height="65" viewBox="0 0 97 65" fill="none"> <path fill-rule="evenodd" clip-rule="evenodd" d="M34.6866 30.6391C38.1985 28.6616 40.5828 27.5207 41.8528 27.2292C41.6715 28.0024 41.5808 28.6997 41.5808 29.3462C41.5808 32.1477 43.2265 33.5421 46.5311 33.5421C49.6543 33.5421 51.2223 33.2125 51.2223 32.5406C51.2223 32.1223 50.7686 31.8941 49.8485 31.8687C48.5656 31.8181 47.6974 31.7167 47.2439 31.5393C46.3238 31.159 45.8571 30.3349 45.8571 29.0673C45.8571 28.2179 46.0388 27.4066 46.3886 26.6334C49.6931 25.5432 52.9199 24.0221 56.056 22.0825C60.3455 19.4839 62.4967 17.0627 62.4967 14.8569C62.4967 13.1709 61.4858 12.3216 59.4512 12.3216C56.7169 12.3216 53.4124 13.9441 49.5247 17.1894C45.8831 20.219 43.4728 23.1093 42.3065 25.8601C40.3496 26.3038 37.8226 27.3813 34.7253 29.1053C31.9134 30.7025 29.7362 31.6278 28.1811 31.8687C27.5201 31.9702 27.1963 32.2617 27.1963 32.7309C27.1963 33.0731 27.3517 33.2378 27.6498 33.2378C29.2566 33.2378 31.6024 32.3758 34.6866 30.6391ZM54.2159 20.5613C51.6369 22.4755 49.1747 23.9967 46.8421 25.1122C47.6325 23.198 49.2913 20.8909 51.8185 18.1781C54.6565 15.1864 56.8983 13.6906 58.5571 13.6906C59.1143 13.6906 59.3865 13.9948 59.3865 14.5906C59.3865 16.0611 57.6629 18.0513 54.2159 20.5613ZM57.3648 6.43966C57.3648 7.0101 57.637 7.3017 58.1942 7.3017C58.5182 7.3017 59.2699 6.98474 60.4233 6.33821L65.3866 3.57483C66.514 2.95366 67.0841 2.15497 67.0841 1.19161C67.0841 0.392918 66.7862 0 66.1771 0C65.6717 0 64.0907 0.91264 61.4469 2.75077C58.7256 4.63963 57.3648 5.86922 57.3648 6.43966ZM9.06686 53.455H2.41179C2.9008 52.0487 4.01568 51.3437 5.75633 51.3437C7.48929 51.3437 8.59272 52.0487 9.06686 53.455ZM2.05523 55.2836V55.2487H11.3345C11.3345 53.5827 10.849 52.2539 9.87826 51.2545C8.75202 50.1038 7.37927 49.5305 5.75633 49.5305C4.14839 49.5305 2.78711 50.0961 1.67222 51.2313C0.557327 52.3663 0 53.7183 0 55.2836C0 56.8332 0.557327 58.1775 1.67222 59.3166C2.78711 60.4555 4.14839 61.0249 5.75633 61.0249C7.37927 61.0249 8.75202 60.4478 9.87826 59.2895C10.2498 58.9175 10.5721 58.4913 10.8565 58.007L8.96817 57.3252C8.67237 57.6972 8.47135 57.9336 8.36523 58.0419C7.6181 58.8051 6.74985 59.1888 5.75633 59.1888C4.75512 59.1888 3.89066 58.8128 3.15488 58.0652C2.423 57.3136 2.05523 56.3877 2.05523 55.2836ZM21.7738 64.3645H23.7873V50.3789H21.7738V51.5953C20.9775 50.224 19.7679 49.5382 18.1525 49.5382C16.5483 49.5382 15.1871 50.1038 14.0723 51.235C12.9573 52.3663 12.3999 53.7183 12.3999 55.2836C12.3999 56.8332 12.9573 58.1775 14.0723 59.3166C15.1871 60.4555 16.5483 61.0249 18.1525 61.0249C19.7754 61.0249 20.9813 60.3314 21.7738 58.9369V64.3645ZM21.7738 54.4429V56.1009C21.6335 56.8564 21.2961 57.5073 20.7652 58.0536C20.0182 58.8168 19.146 59.2002 18.1525 59.2002C17.1551 59.2002 16.2868 58.8206 15.5549 58.0691C14.8193 57.3175 14.4552 56.3877 14.4552 55.2836C14.4552 54.1717 14.8193 53.238 15.5549 52.4786C16.2868 51.7232 17.1551 51.3437 18.1525 51.3437C19.146 51.3437 20.0182 51.7309 20.7652 52.502C21.2961 53.0482 21.6335 53.6951 21.7738 54.4429ZM26.9385 59.6884C27.7198 60.4904 28.7853 60.8895 30.1315 60.8895C31.4057 60.8895 32.4295 60.4981 33.1993 59.7078C33.9919 58.8942 34.3976 57.9024 34.4203 56.7362V50.3673H32.4104V56.6549C32.4104 57.3524 32.1754 57.9373 31.7089 58.4099C31.2426 58.8827 30.7116 59.1189 30.1201 59.1189C29.4679 59.1189 28.918 58.8904 28.4668 58.4255C27.9851 57.9413 27.7425 57.3524 27.7425 56.6549V50.3673H25.7327V56.7362C25.7555 57.9024 26.1574 58.8864 26.9385 59.6884ZM38.6863 60.7539V50.3789H36.6879V60.7539H38.6863ZM38.7129 47.423C38.4437 47.1556 38.1061 47.02 37.6967 47.02C37.2756 47.02 36.9306 47.1556 36.6652 47.423C36.3996 47.6903 36.2633 47.9924 36.2633 48.3256C36.2633 48.6742 36.3996 48.9803 36.6652 49.2516C36.9306 49.5188 37.2756 49.6543 37.6967 49.6543C38.1061 49.6543 38.4437 49.5188 38.7129 49.2516C38.9859 48.9803 39.1186 48.6742 39.1186 48.3256C39.1186 47.9924 38.9859 47.6903 38.7129 47.423ZM45.7546 60.7539L50.2861 50.3789H48.0753L45.1212 57.2903L42.2089 50.3789H39.9983L44.4881 60.7539H45.7546ZM60.4867 60.7539H62.4965V50.3789H60.4867V51.5953C59.6941 50.2163 58.4845 49.5305 56.8614 49.5305C55.2575 49.5305 53.8963 50.0961 52.7812 51.2313C51.6665 52.3663 51.109 53.7183 51.109 55.2836C51.109 56.8332 51.6665 58.1775 52.7812 59.3166C53.8963 60.4555 55.2575 61.0249 56.8614 61.0249C58.4845 61.0249 59.6941 60.3314 60.4867 58.9369V60.7539ZM60.4867 54.4429V56.1009C60.3426 56.8487 60.0089 57.4957 59.4741 58.0419C58.7271 58.8051 57.8551 59.1888 56.8614 59.1888C55.8643 59.1888 54.9958 58.8128 54.264 58.0652C53.5282 57.3136 53.1644 56.3877 53.1644 55.2836C53.1644 54.1717 53.5282 53.238 54.264 52.4786C54.9958 51.7232 55.8643 51.3437 56.8614 51.3437C57.8551 51.3437 58.7271 51.7309 59.4741 52.502C60.0089 53.0482 60.3426 53.6951 60.4867 54.4429ZM66.7169 60.7539V44.4206H64.7034V60.7539H66.7169ZM77.5813 53.455H70.9262C71.4152 52.0487 72.5302 51.3437 74.2707 51.3437C76.0037 51.3437 77.1071 52.0487 77.5813 53.455ZM70.5696 55.2836V55.2487H79.8488C79.8488 53.5827 79.3634 52.2539 78.3927 51.2545C77.2664 50.1038 75.8937 49.5305 74.2707 49.5305C72.6628 49.5305 71.3015 50.0961 70.1866 51.2313C69.0718 52.3663 68.5144 53.7183 68.5144 55.2836C68.5144 56.8332 69.0718 58.1775 70.1866 59.3166C71.3015 60.4555 72.6628 61.0249 74.2707 61.0249C75.8937 61.0249 77.2664 60.4478 78.3927 59.2895C78.7642 58.9175 79.0865 58.4913 79.3709 58.007L77.4826 57.3252C77.1868 57.6972 76.9857 57.9336 76.8796 58.0419C76.1325 58.8051 75.2642 59.1888 74.2707 59.1888C73.2695 59.1888 72.405 58.8128 71.6693 58.0652C70.9375 57.3136 70.5696 56.3877 70.5696 55.2836ZM83.3564 60.7539V53.0134C83.4626 52.7692 83.6447 52.5175 83.9025 52.2539C84.3538 51.8123 84.8769 51.5953 85.4685 51.5953C86.0677 51.5953 86.6024 51.8277 87.0688 52.2928C87.5353 52.7576 87.7665 53.3426 87.7665 54.0476V60.7539H89.7687V53.9547C89.7536 52.7964 89.3517 51.8162 88.5667 51.0142C87.7816 50.2123 86.7502 49.8134 85.4685 49.8134C84.4029 49.8134 83.6977 50.003 83.3564 50.3789H81.3465V60.7539H83.3564ZM93.1133 46.3498V50.3789H91.2249V52.1494H93.1133V60.7539H95.1116V52.1494H97V50.3789H95.1116V46.3498H93.1133Z" fill="white"></path> </svg> 