<?xml version="1.0" encoding="UTF-8"?> <svg xmlns="http://www.w3.org/2000/svg" width="97" height="65" viewBox="0 0 97 65" fill="none"> <path fill-rule="evenodd" clip-rule="evenodd" d="M34.6866 30.648C38.1985 28.6702 40.5828 27.5291 41.8528 27.2376C41.6715 28.0109 41.5808 28.7083 41.5808 29.3549C41.5808 32.1568 43.2265 33.5514 46.5311 33.5514C49.6543 33.5514 51.2223 33.2218 51.2223 32.5498C51.2223 32.1315 50.7686 31.9032 49.8485 31.8778C48.5656 31.8272 47.6974 31.7257 47.2439 31.5483C46.3238 31.168 45.8571 30.3438 45.8571 29.076C45.8571 28.2265 46.0388 27.415 46.3886 26.6417C49.6931 25.5514 52.9199 24.0299 56.056 22.0901C60.3455 19.4911 62.4966 17.0695 62.4966 14.8633C62.4966 13.1771 61.4858 12.3277 59.4512 12.3277C56.7169 12.3277 53.4124 13.9504 49.5247 17.1962C45.8831 20.2263 43.4728 23.117 42.3065 25.8682C40.3496 26.3121 37.8226 27.3897 34.7253 29.114C31.9134 30.7114 29.7362 31.6369 28.1811 31.8778C27.5201 31.9793 27.1963 32.2709 27.1963 32.7401C27.1963 33.0823 27.3517 33.2472 27.6498 33.2472C29.2566 33.2472 31.6024 32.385 34.6866 30.648ZM54.2158 20.5686C51.6369 22.4832 49.1747 24.0046 46.8421 25.1203C47.6325 23.2058 49.2913 20.8983 51.8185 18.1851C54.6565 15.193 56.8983 13.6969 58.5571 13.6969C59.1143 13.6969 59.3865 14.0012 59.3865 14.5971C59.3865 16.0677 57.6629 18.0582 54.2158 20.5686ZM57.3648 6.44481C57.3648 7.01534 57.637 7.30698 58.1942 7.30698C58.5182 7.30698 59.2699 6.98998 60.4233 6.34335L65.3866 3.57954C66.514 2.95827 67.0841 2.15945 67.0841 1.19595C67.0841 0.39713 66.7862 0.00415039 66.1771 0.00415039C65.6717 0.00415039 64.0907 0.916932 61.4469 2.75535C58.7255 4.6445 57.3648 5.87428 57.3648 6.44481ZM9.06686 53.4675H2.41179C2.9008 52.0609 4.01568 51.3558 5.75633 51.3558C7.48929 51.3558 8.59272 52.0609 9.06686 53.4675ZM2.05523 55.2963V55.2614H11.3345C11.3345 53.5952 10.849 52.2662 9.87826 51.2666C8.75202 50.1158 7.37927 49.5423 5.75633 49.5423C4.14839 49.5423 2.78711 50.1081 1.67222 51.2434C0.557327 52.3786 0 53.7308 0 55.2963C0 56.8462 0.557327 58.1907 1.67222 59.33C2.78711 60.4691 4.14839 61.0386 5.75633 61.0386C7.37927 61.0386 8.75202 60.4614 9.87826 59.3028C10.2498 58.9308 10.5721 58.5045 10.8565 58.0202L8.96817 57.3383C8.67237 57.7103 8.47135 57.9468 8.36523 58.0551C7.6181 58.8184 6.74985 59.2021 5.75633 59.2021C4.75512 59.2021 3.89066 58.8261 3.15488 58.0784C2.423 57.3267 2.05523 56.4006 2.05523 55.2963ZM21.7738 64.3786H23.7873V50.3909H21.7738V51.6075C20.9775 50.2359 19.7679 49.55 18.1525 49.55C16.5483 49.55 15.1871 50.1158 14.0723 51.2471C12.9573 52.3786 12.3999 53.7308 12.3999 55.2963C12.3999 56.8462 12.9573 58.1907 14.0723 59.33C15.1871 60.4691 16.5483 61.0386 18.1525 61.0386C19.7754 61.0386 20.9813 60.3449 21.7738 58.9502V64.3786ZM21.7738 54.4555V56.1138C21.6335 56.8694 21.2961 57.5204 20.7652 58.0668C20.0182 58.8301 19.146 59.2136 18.1525 59.2136C17.1551 59.2136 16.2868 58.8339 15.5549 58.0822C14.8193 57.3305 14.4552 56.4006 14.4552 55.2963C14.4552 54.1843 14.8193 53.2505 15.5549 52.4909C16.2868 51.7354 17.1551 51.3558 18.1525 51.3558C19.146 51.3558 20.0182 51.7431 20.7652 52.5144C21.2961 53.0606 21.6335 53.7076 21.7738 54.4555ZM26.9385 59.7018C27.7198 60.504 28.7853 60.9031 30.1315 60.9031C31.4057 60.9031 32.4295 60.5117 33.1993 59.7212C33.9919 58.9075 34.3976 57.9156 34.4203 56.7492V50.3793H32.4104V56.6678C32.4104 57.3654 32.1754 57.9505 31.7089 58.4231C31.2426 58.896 30.7116 59.1322 30.1201 59.1322C29.4679 59.1322 28.918 58.9037 28.4668 58.4387C27.9851 57.9545 27.7425 57.3654 27.7425 56.6678V50.3793H25.7327V56.7492C25.7555 57.9156 26.1574 58.8997 26.9385 59.7018ZM38.6863 60.7675V50.3909H36.6879V60.7675H38.6863ZM38.7129 47.4346C38.4437 47.1671 38.1061 47.0315 37.6967 47.0315C37.2756 47.0315 36.9306 47.1671 36.6652 47.4346C36.3996 47.7019 36.2633 48.004 36.2633 48.3373C36.2633 48.6859 36.3996 48.992 36.6652 49.2634C36.9306 49.5306 37.2756 49.6662 37.6967 49.6662C38.1061 49.6662 38.4437 49.5306 38.7129 49.2634C38.9859 48.992 39.1186 48.6859 39.1186 48.3373C39.1186 48.004 38.9859 47.7019 38.7129 47.4346ZM45.7546 60.7675L50.2861 50.3909H48.0753L45.1212 57.3034L42.2089 50.3909H39.9983L44.4881 60.7675H45.7546ZM60.4867 60.7675H62.4965V50.3909H60.4867V51.6075C59.6941 50.2282 58.4845 49.5423 56.8614 49.5423C55.2575 49.5423 53.8963 50.1081 52.7812 51.2434C51.6665 52.3786 51.109 53.7308 51.109 55.2963C51.109 56.8462 51.6665 58.1907 52.7812 59.33C53.8963 60.4691 55.2575 61.0386 56.8614 61.0386C58.4845 61.0386 59.6941 60.3449 60.4867 58.9502V60.7675ZM60.4867 54.4555V56.1138C60.3426 56.8616 60.0089 57.5088 59.4741 58.0551C58.7271 58.8184 57.8551 59.2021 56.8614 59.2021C55.8643 59.2021 54.9958 58.8261 54.264 58.0784C53.5282 57.3267 53.1644 56.4006 53.1644 55.2963C53.1644 54.1843 53.5282 53.2505 54.264 52.4909C54.9958 51.7354 55.8643 51.3558 56.8614 51.3558C57.8551 51.3558 58.7271 51.7431 59.4741 52.5144C60.0089 53.0606 60.3426 53.7076 60.4867 54.4555ZM66.7169 60.7675V44.4316H64.7034V60.7675H66.7169ZM77.5813 53.4675H70.9262C71.4152 52.0609 72.5302 51.3558 74.2707 51.3558C76.0037 51.3558 77.1071 52.0609 77.5813 53.4675ZM70.5696 55.2963V55.2614H79.8488C79.8488 53.5952 79.3634 52.2662 78.3927 51.2666C77.2664 50.1158 75.8937 49.5423 74.2707 49.5423C72.6628 49.5423 71.3015 50.1081 70.1866 51.2434C69.0718 52.3786 68.5144 53.7308 68.5144 55.2963C68.5144 56.8462 69.0718 58.1907 70.1866 59.33C71.3015 60.4691 72.6628 61.0386 74.2707 61.0386C75.8937 61.0386 77.2664 60.4614 78.3927 59.3028C78.7642 58.9308 79.0865 58.5045 79.3709 58.0202L77.4826 57.3383C77.1868 57.7103 76.9857 57.9468 76.8796 58.0551C76.1325 58.8184 75.2642 59.2021 74.2707 59.2021C73.2695 59.2021 72.405 58.8261 71.6693 58.0784C70.9375 57.3267 70.5696 56.4006 70.5696 55.2963ZM83.3564 60.7675V53.0257C83.4626 52.7816 83.6447 52.5298 83.9025 52.2662C84.3538 51.8245 84.8769 51.6075 85.4685 51.6075C86.0677 51.6075 86.6024 51.8399 87.0688 52.3051C87.5353 52.77 87.7665 53.355 87.7665 54.0601V60.7675H89.7687V53.9673C89.7536 52.8087 89.3517 51.8285 88.5667 51.0263C87.7816 50.2242 86.7502 49.8253 85.4685 49.8253C84.4029 49.8253 83.6977 50.0149 83.3564 50.3909H81.3465V60.7675H83.3564ZM93.1133 46.3611V50.3909H91.2249V52.1616H93.1133V60.7675H95.1116V52.1616H97V50.3909H95.1116V46.3611H93.1133Z" fill="black"></path> </svg> 