<?xml version="1.0" encoding="UTF-8"?> <svg xmlns="http://www.w3.org/2000/svg" width="247" height="52" viewBox="0 0 247 52" fill="none"> <rect width="247" height="52" fill="#D5C2A9"></rect> <path d="M16.1172 32L19.6562 25.8516L16.7188 20.7578H18.2812L20.4375 24.5L22.5938 20.7578H24.1641L21.2188 25.8516L24.7734 32H23.2031L20.4375 27.2109L17.6719 32H16.1172ZM31.9388 20.6016C33.5742 20.6016 34.957 21.1693 36.0872 22.3047C37.2226 23.4401 37.7903 24.7917 37.7903 26.3594C37.7903 27.9375 37.2226 29.2943 36.0872 30.4297C34.957 31.5599 33.5742 32.125 31.9388 32.125C30.3085 32.125 28.9257 31.5599 27.7903 30.4297C26.6601 29.2943 26.095 27.9375 26.095 26.3594C26.095 24.7917 26.6601 23.4401 27.7903 22.3047C28.9257 21.1693 30.3085 20.6016 31.9388 20.6016ZM31.9388 21.8359C30.7408 21.8359 29.7044 22.276 28.8294 23.1562C27.9544 24.0312 27.5169 25.099 27.5169 26.3594C27.5169 27.6302 27.9544 28.7031 28.8294 29.5781C29.7044 30.4531 30.7408 30.8906 31.9388 30.8906C33.1419 30.8906 34.1809 30.4531 35.0559 29.5781C35.9309 28.7031 36.3684 27.6302 36.3684 26.3594C36.3684 25.099 35.9309 24.0312 35.0559 23.1562C34.1809 22.276 33.1419 21.8359 31.9388 21.8359ZM46.0572 24.7734V20.7578H47.4634V32H46.0572V27.1016C45.5103 27.763 44.6614 28.0938 43.5103 28.0938C42.3489 28.0938 41.4088 27.7474 40.69 27.0547C39.9869 26.388 39.6353 25.3698 39.6353 24V20.7578H41.1041L41.0963 24.0547C41.0963 25.0443 41.3306 25.776 41.7994 26.25C42.2629 26.7135 42.8202 26.9453 43.4713 26.9453H43.5728C44.2707 26.9245 44.8567 26.6875 45.3306 26.2344C45.7681 25.8125 46.0103 25.3255 46.0572 24.7734ZM58.8241 20.7578C55.1522 27.3151 52.9386 30.888 52.1834 31.4766C51.6626 31.8828 51.1574 32.0859 50.6678 32.0859C50.3293 32.0859 49.9308 31.9427 49.4725 31.6562L50.0819 30.5547C50.4985 30.7839 50.7668 30.8984 50.8866 30.8984C50.9282 30.8984 50.9699 30.8932 51.0116 30.8828C51.1782 30.8359 51.6001 30.2917 52.2772 29.25L53.1366 27.8516L48.5037 20.7578H50.0897L53.8866 26.5625L57.2694 20.7578H58.8241ZM68.9516 28.7578V24.1875C68.1443 24.2083 67.4359 24.4297 66.8266 24.8516C66.1807 25.2995 65.8578 25.8385 65.8578 26.4688C65.8578 27.1042 66.1807 27.6458 66.8266 28.0938C67.4359 28.5104 68.1443 28.7318 68.9516 28.7578ZM70.3656 30.0469V31.9688H68.9516V30.0469C67.7484 30.0104 66.7068 29.6641 65.8266 29.0078C64.8734 28.3047 64.3969 27.4583 64.3969 26.4688C64.3969 25.474 64.876 24.625 65.8344 23.9219C66.7146 23.276 67.7536 22.9349 68.9516 22.8984V20.7734H70.3656V22.8984C71.574 22.9349 72.6182 23.276 73.4984 23.9219C74.4464 24.625 74.9203 25.474 74.9203 26.4688C74.9203 27.4531 74.4464 28.2995 73.4984 29.0078C72.6182 29.6641 71.574 30.0104 70.3656 30.0469ZM70.3656 24.1875V28.7578C71.1729 28.7318 71.8812 28.5104 72.4906 28.0938C73.1417 27.6458 73.4672 27.1042 73.4672 26.4688C73.4672 25.8385 73.1417 25.2995 72.4906 24.8516C71.8812 24.4297 71.1729 24.2083 70.3656 24.1875ZM78.4059 28.3203V32H76.9919V20.7578H80.2106C81.1481 20.8828 81.932 21.263 82.5622 21.8984C83.2966 22.6328 83.6637 23.5104 83.6637 24.5312C83.6637 25.5573 83.2914 26.4453 82.5466 27.1953C81.8018 27.9453 80.8851 28.3203 79.7966 28.3203H78.4059ZM78.4059 21.9922V27.0859H79.7966C80.4528 27.0859 81.0257 26.8438 81.5153 26.3594C82.0049 25.8698 82.2497 25.2604 82.2497 24.5312C82.2497 23.8073 82.0049 23.2031 81.5153 22.7188C81.0257 22.2344 80.4528 21.9922 79.7966 21.9922H78.4059ZM90.7041 26.1094L89.6259 23.125L88.54 26.1094H90.7041ZM90.2431 20.7578L94.3134 32H92.8447L91.1494 27.3281H88.0947L86.3681 32H84.8916L89.0166 20.7578H90.2431ZM97.2053 26.9922V32H95.7913V20.7578H97.2053V25.7656H101.823V20.7578H103.237V32H101.823V26.9922H97.2053ZM105.48 20.7578H106.894V30.7656H110.48V20.7578H111.894V30.7656H115.488V20.7578H116.894V31.9922H105.48V20.7578ZM128.473 20.7578V32H127.059V23.2422L120.817 32H119.255V20.7578H120.669V29.7422L127.075 20.7578H128.473ZM135.381 27.4844C135.074 27.1302 134.657 26.9531 134.131 26.9531H131.217V25.7344H134.131C134.662 25.7344 135.079 25.5599 135.381 25.2109C135.688 24.862 135.842 24.3776 135.842 23.7578C135.842 23.1589 135.644 22.6979 135.248 22.375C134.852 22.0469 134.394 21.8828 133.873 21.8828C132.951 21.8828 131.91 22.3125 130.748 23.1719V21.7266C131.67 21.0443 132.662 20.7031 133.725 20.7031C134.746 20.7031 135.592 20.9766 136.264 21.5234C136.941 22.0703 137.279 22.7865 137.279 23.6719C137.279 25.0156 136.946 25.8958 136.279 26.3125C136.946 26.651 137.279 27.5495 137.279 29.0078C137.279 29.8932 136.941 30.612 136.264 31.1641C135.592 31.7161 134.746 31.9922 133.725 31.9922C132.636 31.9922 131.644 31.6302 130.748 30.9062V29.0156C131.748 30.1615 132.74 30.7344 133.725 30.7344C134.256 30.7344 134.74 30.5833 135.178 30.2812C135.621 29.9792 135.842 29.5312 135.842 28.9375C135.842 28.3177 135.688 27.8333 135.381 27.4844ZM148.554 20.7578C144.882 27.3151 142.669 30.888 141.913 31.4766C141.393 31.8828 140.887 32.0859 140.398 32.0859C140.059 32.0859 139.661 31.9427 139.202 31.6562L139.812 30.5547C140.229 30.7839 140.497 30.8984 140.617 30.8984C140.658 30.8984 140.7 30.8932 140.742 30.8828C140.908 30.8359 141.33 30.2917 142.007 29.25L142.867 27.8516L138.234 20.7578H139.82L143.617 26.5625L146.999 20.7578H148.554Z" fill="#2F2F2F"></path> <path fill-rule="evenodd" clip-rule="evenodd" d="M225.879 20C226.329 23.2933 228.197 24.8635 229.697 25.5H230V25.6178C230.385 25.7547 230.736 25.8288 231.017 25.8552L230.971 26.353L231.017 26.8508C229.609 26.9829 226.481 28.3078 225.879 32.706L224.888 32.5705C225.351 29.185 227.177 27.3644 228.854 26.5L189 26.5V25.5L227.754 25.5C226.447 24.4756 225.251 22.7846 224.888 20.1355L225.879 20Z" fill="#2F2F2F"></path> </svg> 